<svg width="512" height="512" viewBox="0 0 512 512" fill="none" xmlns="http://www.w3.org/2000/svg">
<g id="accessories 1">
<g id="hand">
<path id="Vector" d="M318.782 269.04C325.201 268.547 331.441 266.697 337.092 263.613C342.742 260.529 347.674 256.281 351.561 251.15C355.449 246.018 358.203 240.121 359.642 233.846C361.081 227.572 361.172 221.063 359.909 214.751L356.685 198.63L399.03 156.284C402.804 152.511 405.526 147.817 406.927 142.667C408.327 137.517 408.358 132.091 407.015 126.926C405.673 121.761 403.004 117.037 399.273 113.221C395.542 109.405 390.878 106.631 385.745 105.173C389.71 99.9548 391.897 93.603 391.986 87.0501C392.074 80.4973 390.059 74.0887 386.236 68.7657C382.414 63.4427 376.985 59.4858 370.747 57.4761C364.509 55.4664 357.791 55.5099 351.58 57.6001C350.715 52.3943 348.519 47.5004 345.205 43.3933C341.891 39.2861 337.573 36.1051 332.667 34.1587C327.762 32.2124 322.437 31.5668 317.209 32.2846C311.981 33.0023 307.027 35.0591 302.827 38.2554C301.369 33.1218 298.595 28.4584 294.779 24.7275C290.963 20.9965 286.239 18.3275 281.074 16.9849C275.909 15.6423 270.483 15.6729 265.333 17.0734C260.183 18.474 255.489 21.1961 251.716 24.9697L18.3428 258.343L29.6573 269.657L88 211.314L204.686 328L50.3428 482.343L61.6572 493.657L283.565 271.75L318.782 269.04ZM336.151 244.534C331.171 249.512 324.576 252.545 317.556 253.087L300.95 254.365L343.087 212.227L344.22 217.89C345.177 222.652 344.942 227.577 343.534 232.226C342.126 236.875 339.59 241.103 336.151 244.534V244.534ZM120.99 221.676L99.3145 200L144 155.314L165.676 176.99C163.21 178.154 160.961 179.732 159.029 181.656L125.656 215.029C123.732 216.961 122.154 219.21 120.99 221.676V221.676ZM170.344 271.029L136.971 237.656C135.473 236.155 134.631 234.121 134.631 232C134.631 229.879 135.473 227.845 136.971 226.344L170.344 192.971C171.845 191.472 173.879 190.631 176 190.631C178.121 190.631 180.155 191.472 181.656 192.971L215.029 226.344C216.527 227.845 217.369 229.879 217.369 232C217.369 234.121 216.527 236.155 215.029 237.656L181.656 271.029C180.155 272.527 178.121 273.369 176 273.369C173.879 273.369 171.845 272.527 170.344 271.029H170.344ZM220.687 264L208 276.687L203.314 272L216 259.314L220.687 264ZM216 316.686L186.324 287.01C188.368 286.036 190.263 284.775 191.951 283.265L202.343 293.657C203.843 295.157 205.878 296 208 296C210.122 296 212.157 295.157 213.657 293.657L237.657 269.657C239.157 268.157 240 266.122 240 264C240 261.878 239.157 259.843 237.657 258.343L227.265 247.951C228.775 246.263 230.036 244.368 231.01 242.324L260.686 272L216 316.686ZM155.314 144L263.03 36.2842C265.773 33.5411 269.494 32.0001 273.373 32.0001C277.252 32.0001 280.973 33.5411 283.716 36.2842C286.459 39.0273 288 42.7477 288 46.627C288 50.5062 286.459 54.2267 283.716 56.9697L282.343 58.3427L266.343 74.3427L277.657 85.6572L293.657 69.6572L295.03 68.2842L311.03 52.2842C312.389 50.926 314.001 49.8485 315.776 49.1135C317.55 48.3784 319.452 48.0001 321.373 48.0001C323.294 48.0001 325.196 48.3784 326.971 49.1135C328.745 49.8485 330.358 50.926 331.716 52.2842C333.074 53.6424 334.151 55.2549 334.887 57.0295C335.622 58.8041 336 60.7061 336 62.627C336 64.5478 335.622 66.4498 334.887 68.2244C334.151 69.9991 333.074 71.6115 331.716 72.9697L322.343 82.3427L314.343 90.3427L325.657 101.657L333.657 93.6572L343.03 84.2842L351.03 76.2842C352.388 74.926 354.001 73.8486 355.776 73.1135C357.55 72.3784 359.452 72.0001 361.373 72.0001C363.294 72.0001 365.196 72.3784 366.97 73.1135C368.745 73.8486 370.358 74.926 371.716 76.2842C373.074 77.6424 374.151 79.2549 374.886 81.0295C375.622 82.8041 376 84.7061 376 86.627C376 88.5478 375.622 90.4498 374.886 92.2244C374.151 93.9991 373.074 95.6115 371.716 96.9697L355.716 112.97L354.343 114.343L338.343 130.343L349.657 141.657L365.657 125.657L367.03 124.284C368.388 122.926 370.001 121.849 371.775 121.113C373.55 120.378 375.452 120 377.373 120C379.294 120 381.196 120.378 382.97 121.113C384.745 121.849 386.357 122.926 387.716 124.284C389.074 125.642 390.151 127.255 390.886 129.03C391.621 130.804 392 132.706 392 134.627C392 136.548 391.621 138.45 390.886 140.224C390.151 141.999 389.074 143.612 387.716 144.97L272 260.686L155.314 144Z" fill="white"/>
</g>
<g id="sunglass">
<path id="Vector_2" d="M472.486 245.171L479.92 193.132C480.095 191.902 479.982 190.649 479.589 189.47C479.197 188.292 478.535 187.221 477.657 186.343L461.657 170.343C460.157 168.843 458.122 168 456 168C453.878 168 451.843 168.843 450.343 170.343L418.343 202.343L202.343 418.343L170.343 450.343C168.843 451.843 168 453.878 168 456C168 458.122 168.843 460.157 170.343 461.657L186.343 477.657C187.221 478.535 188.292 479.196 189.47 479.589C190.649 479.982 191.902 480.095 193.132 479.92L245.171 472.486L255.029 482.344C263.774 491.088 275.634 496 288 496C300.366 496 312.226 491.088 320.971 482.344L374.372 428.942C377.625 425.68 379.873 421.553 380.848 417.051C381.823 412.548 381.485 407.861 379.873 403.545L365.676 365.672L403.545 379.873C407.861 381.485 412.548 381.823 417.051 380.848C421.553 379.873 425.68 377.625 428.942 374.372L482.344 320.971C491.088 312.226 496 300.366 496 288C496 275.634 491.088 263.774 482.344 255.029L472.486 245.171ZM456 187.313L463.515 194.828L458.343 231.029L435.314 208L456 187.313ZM194.828 463.515L187.313 456L208 435.314L231.029 458.343L194.828 463.515ZM471.029 309.656L417.628 363.058C416.541 364.142 415.165 364.891 413.664 365.217C412.163 365.542 410.601 365.429 409.162 364.893L371.288 350.689C368.412 349.61 365.285 349.382 362.283 350.033C359.281 350.683 356.529 352.184 354.357 354.356C352.184 356.529 350.683 359.281 350.033 362.283C349.383 365.285 349.611 368.412 350.689 371.288L364.893 409.162C365.43 410.601 365.542 412.163 365.217 413.664C364.892 415.165 364.142 416.541 363.058 417.628L309.656 471.029C306.812 473.873 303.436 476.129 299.72 477.669C296.005 479.208 292.022 480 288 480C283.978 480 279.995 479.208 276.28 477.669C272.564 476.129 269.188 473.873 266.344 471.029L219.313 424L424 219.313L471.029 266.344C473.873 269.188 476.129 272.564 477.669 276.28C479.208 279.995 480 283.978 480 288C480 292.022 479.208 296.005 477.669 299.72C476.129 303.436 473.873 306.812 471.029 309.656V309.656Z" fill="white"/>
<path id="Vector_3" d="M384 288H400V312H384V288Z" fill="white"/>
<path id="Vector_4" d="M272 400H288V424H272V400Z" fill="white"/>
<path id="Vector_5" d="M304 376H320V440H304V376Z" fill="white"/>
<path id="Vector_6" d="M416 264H432V328H416V264Z" fill="white"/>
</g>
</g>
</svg>
