<svg width="290" height="290" viewBox="0 0 290 290" fill="none" xmlns="http://www.w3.org/2000/svg">
<g id="adoption 1" clip-path="url(#clip0)">
<g id="XMLID 675">
<g id="XMLID 1072">
<path id="XMLID 1133" d="M155.081 95.0934C157.293 92.8816 157.293 89.2951 155.081 87.0833C152.87 84.8714 149.283 84.8714 147.071 87.0833C146.371 87.7833 145.553 87.8876 145.129 87.8876C144.704 87.8876 143.886 87.7828 143.186 87.0833C140.975 84.8714 137.389 84.8714 135.176 87.0833C132.964 89.2951 132.964 92.8816 135.176 95.0934C137.834 97.7521 141.369 99.2162 145.128 99.2162C148.887 99.2162 152.423 97.7521 155.081 95.0934V95.0934Z" fill="#ED4337"/>
<path id="XMLID 1134" d="M141.018 256.016H88.6681C87.166 256.016 85.7256 256.613 84.663 257.675L62.0056 280.331C59.7938 282.543 59.7938 286.13 62.0056 288.342C63.1118 289.448 64.5613 290.001 66.0107 290.001C67.4601 290.001 68.9096 289.447 70.0157 288.342L91.0147 267.344H141.018C144.146 267.344 146.682 264.808 146.682 261.68C146.682 258.551 144.146 256.016 141.018 256.016V256.016Z" fill="#ED4337"/>
<g id="girl">
<path id="XMLID 1142" d="M289.778 176.021C289.205 169.861 286.019 164.223 281.037 160.554C272.089 153.962 259.675 155.168 252.163 163.36L229.961 187.57V183.277C229.961 157.894 211.891 135.883 186.996 130.939L175.174 128.591C171.238 127.809 167.826 125.609 165.497 122.511C180.147 116.699 191.766 104.847 197.271 90.0461C198.207 91.2537 199.22 92.4143 200.319 93.5125C207.279 100.472 216.588 104.294 226.318 104.294C227.593 104.294 228.877 104.228 230.163 104.095C231.813 103.924 233.304 103.039 234.245 101.673C235.186 100.307 235.481 98.5972 235.051 96.9948L234.005 93.09L237.91 94.1361C239.511 94.5655 241.223 94.2715 242.588 93.3301C243.955 92.3893 244.84 90.8974 245.01 89.2475C246.157 78.1527 242.3 67.2755 234.428 59.4035C225.458 50.4339 212.56 46.7993 200.393 49.4943C197.276 21.6883 173.625 0 145 0C116.375 0 92.7241 21.6883 89.6066 49.4943C77.4402 46.7993 64.542 50.4334 55.5724 59.4035C47.7005 67.276 43.8432 78.1539 44.9902 89.2475C45.1613 90.8974 46.046 92.3893 47.4122 93.3301C48.7778 94.2709 50.4878 94.5649 52.0901 94.1361L55.9955 93.09L54.9488 96.9948C54.5194 98.5972 54.814 100.307 55.7548 101.673C56.6956 103.039 58.1875 103.925 59.8374 104.095C61.1237 104.228 62.4061 104.294 63.6828 104.294C73.4131 104.293 82.7225 100.471 89.6814 93.5125C90.7796 92.4143 91.7929 91.2537 92.7292 90.0461C98.2341 104.847 109.853 116.699 124.503 122.511C122.174 125.609 118.762 127.809 114.827 128.591L103.005 130.939C78.2116 135.863 60.1948 157.714 60.0464 182.963C52.6452 186.525 45.8183 191.348 39.8388 197.327L1.78815 235.377C-0.423666 237.589 -0.423666 241.176 1.78815 243.388C2.89434 244.494 4.34377 245.047 5.79321 245.047C7.24264 245.047 8.69208 244.494 9.79827 243.388L47.8483 205.338C59.6403 193.545 75.3196 187.051 91.9968 187.051C103.219 187.051 113.768 191.42 121.703 199.356C122.766 200.418 124.206 201.015 125.708 201.015H162.852C168.35 201.015 172.822 205.487 172.822 210.985C172.822 216.482 168.35 220.954 162.852 220.954H119.794C116.667 220.954 114.13 223.49 114.13 226.619C114.13 229.747 116.667 232.283 119.794 232.283H164.002C189.628 232.283 214.259 221.451 231.58 202.564L260.511 171.017C264.103 167.1 270.039 166.523 274.318 169.675C276.735 171.456 278.22 174.082 278.497 177.071C278.776 180.061 277.801 182.916 275.754 185.112L239.064 224.463C225.935 238.544 209.119 248.442 190.436 253.087C187.4 253.842 185.551 256.914 186.305 259.95C186.946 262.528 189.257 264.249 191.798 264.249C192.25 264.249 192.71 264.195 193.168 264.081C213.986 258.905 232.722 247.877 247.35 232.188L284.04 192.837C288.26 188.311 290.351 182.182 289.778 176.021V176.021ZM201.74 60.8247C210.484 58.4735 219.935 60.93 226.418 67.4137C230.227 71.2227 232.678 76.0502 233.537 81.2362L227.46 79.6084C225.504 79.0833 223.42 79.6441 221.989 81.0742C220.559 82.505 220 84.5905 220.523 86.5457L222.151 92.6216C216.966 91.7623 212.137 89.3115 208.329 85.503C201.846 79.0188 199.389 69.5688 201.74 60.8247ZM189.246 51.9678C175.583 50.6956 162.645 44.7784 152.743 35.2186C157.057 29.1631 160.403 22.3379 162.542 14.9463C177.233 21.2867 187.837 35.3353 189.246 51.9678ZM145 11.3281C147.258 11.3281 149.477 11.5003 151.646 11.8271C145.042 34.5967 124.636 50.8882 100.74 52.1451C102.581 29.3325 121.722 11.3281 145 11.3281ZM81.6713 85.5024C77.8622 89.3115 73.0353 91.7623 67.8487 92.621L69.4765 86.5452C70.0005 84.5905 69.4414 82.505 68.0107 81.0737C66.9345 79.9975 65.4879 79.4147 64.005 79.4147C63.5168 79.4147 63.0246 79.4775 62.5398 79.6078L56.4639 81.2357C57.3226 76.0497 59.7734 71.2222 63.5825 67.4131C70.0662 60.9289 79.5189 58.4729 88.2603 60.8241C90.6125 69.5688 88.1549 79.0188 81.6713 85.5024V85.5024ZM100.582 70.6699V63.4992C117.899 62.7827 133.739 55.4925 145.407 43.8704C157.386 55.1991 172.996 62.1064 189.418 63.3531V70.6699C189.418 95.1619 169.492 115.088 145 115.088C120.508 115.088 100.582 95.1619 100.582 70.6699ZM145 126.416C148.108 126.416 151.157 126.156 154.128 125.664C155.836 128.9 158.162 131.729 160.948 134.015C157.062 138.709 151.289 141.493 145.001 141.493C138.712 141.493 132.939 138.709 129.053 134.015C131.84 131.729 134.165 128.9 135.873 125.664C138.844 126.156 141.892 126.416 145 126.416V126.416ZM162.853 189.687H127.981C118.129 180.664 105.443 175.723 91.998 175.723C85.0142 175.723 78.1799 176.692 71.6442 178.557C73.6798 160.608 87.1637 145.635 105.212 142.051L117.034 139.702C117.637 139.583 118.232 139.442 118.82 139.284C124.775 147.736 134.42 152.821 145.001 152.821C155.582 152.821 165.226 147.736 171.182 139.284C171.77 139.442 172.365 139.583 172.967 139.702L184.789 142.051C204.4 145.945 218.633 163.283 218.633 183.277V199.525C208.47 208.935 196.046 215.535 182.682 218.741C183.627 216.335 184.151 213.721 184.151 210.985C184.151 199.241 174.597 189.687 162.853 189.687V189.687Z" fill="#ED4337"/>
</g>
<path id="XMLID 1527" d="M166.505 256.016C165.015 256.016 163.554 256.622 162.501 257.675C161.447 258.729 160.841 260.19 160.841 261.68C160.841 263.169 161.447 264.631 162.501 265.684C163.555 266.738 165.015 267.344 166.505 267.344C167.995 267.344 169.456 266.738 170.509 265.684C171.563 264.631 172.169 263.169 172.169 261.68C172.169 260.19 171.563 258.729 170.509 257.675C169.456 256.622 167.995 256.016 166.505 256.016Z" fill="#ED4337"/>
</g>
</g>
</g>
<defs>
<clipPath id="clip0">
<rect width="290" height="290" fill="white"/>
</clipPath>
</defs>
</svg>
