<svg width="826" height="752" viewBox="0 0 826 752" fill="none" xmlns="http://www.w3.org/2000/svg">
<g id="best 1">
<path id="Vector" d="M646.283 283.176H568.518C555.158 283.176 544.319 293.039 544.319 305.207C544.319 317.376 555.158 327.239 568.518 327.239H583.201V446.793C583.201 458.961 594.034 468.824 607.4 468.824C620.767 468.824 631.6 458.961 631.6 446.793V327.239H646.283C659.643 327.239 670.482 317.376 670.482 305.207C670.482 293.039 659.643 283.176 646.283 283.176V283.176Z" fill="white"/>
<path id="Vector_2" d="M387.08 327.239C400.447 327.239 411.28 317.376 411.28 305.207C411.28 293.039 400.447 283.176 387.08 283.176H322.278C308.918 283.176 298.079 293.039 298.079 305.207V446.793C298.079 458.961 308.918 468.824 322.278 468.824H387.08C400.447 468.824 411.28 458.961 411.28 446.793C411.28 434.624 400.447 424.761 387.08 424.761H346.477V398.031H374.117C387.484 398.031 398.317 388.169 398.317 376C398.317 363.831 387.484 353.969 374.117 353.969H346.477V327.239H387.08Z" fill="white"/>
<path id="Vector_3" d="M477.802 353.969C458.374 353.969 458.38 327.239 477.802 327.239H503.722C517.082 327.239 527.921 317.376 527.921 305.207C527.921 293.039 517.082 283.176 503.722 283.176H477.802C443.016 283.176 414.72 308.937 414.72 340.601C414.72 372.271 443.016 398.031 477.802 398.031C497.225 398.031 497.218 424.761 477.802 424.761H451.883C438.516 424.761 427.683 434.624 427.683 446.793C427.683 458.961 438.516 468.824 451.883 468.824H477.802C512.582 468.824 540.878 443.063 540.878 411.399C540.878 379.729 512.582 353.969 477.802 353.969V353.969Z" fill="white"/>
<path id="Vector_4" d="M218.6 283.176H179.717C166.357 283.176 155.518 293.039 155.518 305.207V446.793C155.518 458.961 166.357 468.824 179.717 468.824H218.6C253.802 468.824 281.681 442.639 281.681 411.399C281.681 398.054 276.659 385.765 268.24 376C276.848 365.943 281.681 353.372 281.681 340.578C281.681 309.241 253.67 283.176 218.6 283.176V283.176ZM228.916 420.883C226.225 423.35 222.463 424.761 218.6 424.761H203.916V398.031H218.6C226.698 398.031 233.283 404.027 233.283 411.399C233.283 414.893 231.695 418.347 228.916 420.883V420.883ZM228.935 350.09C226.231 352.552 222.469 353.969 218.6 353.969H203.916V327.239H218.6C222.469 327.239 226.231 328.65 228.928 331.117C231.695 333.641 233.277 337.09 233.277 340.63C233.283 344.118 231.695 347.566 228.935 350.09Z" fill="white"/>
<g id="circle">
<path id="Vector_5" d="M826 376C826 358.283 819.238 340.957 806.981 327.233L772.339 288.374L780.979 238.89C788.233 197.61 759.206 165.458 727.382 154.414L675.94 136.479L656.341 89.8175C642.073 55.451 603.002 35.2271 563.546 40.9644L509.204 48.8474L466.547 17.3439C451.511 6.15613 432.498 0 413 0C393.54 0 374.508 6.15613 359.434 17.3152L316.751 48.8531L262.398 40.9873C217.056 34.3837 181.74 60.8097 169.609 89.7831L149.909 136.611L98.6559 154.454C60.9077 167.449 38.6935 203.015 44.9954 238.942L53.6542 288.414L19.0506 327.25C6.76192 340.939 0 358.249 0 376C0 393.717 6.76192 411.043 19.0191 424.767L53.6605 463.626L45.0206 513.11C37.7672 554.39 66.7936 586.542 98.6181 597.586L150.06 615.521L169.659 662.182C183.927 696.549 222.998 716.773 262.454 711.036L316.796 703.153L359.459 734.656C374.489 745.844 393.502 752 413 752C432.46 752 451.492 745.844 466.566 734.685L509.249 703.147L563.602 711.013C608.944 717.616 644.26 691.19 656.391 662.217L676.091 615.383L727.344 597.54C765.092 584.551 787.306 548.98 781.005 513.058L772.346 463.586L806.949 424.744C819.238 411.061 826 393.751 826 376V376ZM769.422 396.93L731.472 439.523C731.365 439.65 731.251 439.776 731.138 439.902C721.716 450.969 723.116 462.375 723.733 465.835L733.211 520.001C735.486 532.996 728.857 549.921 710.14 556.358L653.889 575.945C653.795 575.974 653.7 576.008 653.612 576.043C644.966 579.164 636.692 585.693 632.709 595.314L611.182 646.491C606.027 658.803 590.971 670.381 571.221 667.507L511.732 658.889C511.656 658.878 511.58 658.866 511.505 658.861C497.445 656.95 487.343 662.481 482.68 666.032L436.052 700.49C422.736 710.347 403.453 710.485 390.011 700.49L343.226 665.94C343.087 665.843 342.948 665.74 342.81 665.642C330.653 657.065 318.125 658.333 314.325 658.895L254.829 667.524C240.555 669.601 221.965 663.559 214.894 646.525L193.379 595.308C193.348 595.222 193.31 595.142 193.272 595.056C189.844 587.184 182.673 579.657 172.104 576.025L115.892 556.427C102.368 551.734 89.6505 538.033 92.8078 520.052L102.273 465.892C102.286 465.818 102.298 465.749 102.305 465.68C104.403 452.88 98.3282 443.689 94.4274 439.437L56.5783 396.987C45.7516 384.864 45.6004 367.308 56.5783 355.076L94.5282 312.482C94.6353 312.35 94.7488 312.224 94.8559 312.098C104.277 301.031 102.884 289.625 102.267 286.171L92.7889 231.999C90.5076 219.004 97.1435 202.085 115.854 195.642L172.111 176.055C172.205 176.026 172.293 175.992 172.388 175.957C181.034 172.842 189.302 166.307 193.291 156.686L214.818 105.515C219.973 93.1968 235.022 81.6246 254.772 84.499L314.262 93.1107C314.344 93.1222 314.42 93.1337 314.495 93.1394C328.555 95.0499 338.65 89.5192 343.32 85.9678L389.948 51.5153C403.264 41.6528 422.547 41.5151 435.983 51.5095L482.768 86.0596C482.913 86.1571 483.052 86.2604 483.19 86.3636C495.347 94.9409 507.875 93.6672 511.669 93.105L571.171 84.4761C585.445 82.4049 604.029 88.4406 611.106 105.48L632.621 156.692C632.652 156.778 632.69 156.864 632.728 156.944C636.15 164.816 643.327 172.349 653.896 175.975L710.102 195.573C723.632 200.266 736.343 213.973 733.186 231.953L723.727 286.114C723.714 286.182 723.702 286.251 723.695 286.32C721.597 299.12 727.672 308.317 731.573 312.563L769.415 355.013C780.248 367.136 780.4 384.692 769.422 396.93V396.93Z" fill="white"/>
</g>
</g>
</svg>
