<svg width="475" height="228" viewBox="0 0 475 228" fill="none" xmlns="http://www.w3.org/2000/svg">
<g id="surface1">
<g id="car-body">
<path id="Vector" d="M84.2759 227.929C110.91 227.896 133.485 207.097 137.289 179.086H345.373C349.577 210.199 376.723 231.796 406.002 227.326C429.537 223.737 448.026 204.092 451.403 179.086H459.676C463.337 179.086 466.487 176.333 467.195 172.519L474.854 131.197C475.032 130.25 475.047 129.276 474.901 128.325C470.391 93.4412 443.754 66.5265 410.739 63.4948L337.749 56.0529L292.288 26.8618C268.136 9.32732 239.562 -0.0363413 210.311 0.000105998H176.6C148.216 0.0365534 119.885 2.63426 91.913 7.76671C82.8352 9.39359 75.3198 10.9641 68.2378 12.6507L51.997 16.4843C48.4825 17.2994 45.9753 20.5995 45.9659 24.4199V35.6688L12.2587 53.5811C4.72458 57.5439 -0.0310319 65.7214 0.000152436 74.6543V131.996C-0.0185582 138.248 2.32339 144.252 6.49586 148.659L30.8134 174.497C32.5753 204.503 55.9792 227.892 84.2759 227.929ZM84.2759 211.647C63.1173 211.647 45.969 193.426 45.969 170.945C45.969 148.467 63.1173 130.243 84.2759 130.243C105.431 130.243 122.583 148.467 122.583 170.945C122.555 193.413 105.422 211.62 84.2759 211.647ZM398.39 211.647C377.231 211.647 360.083 193.426 360.083 170.945C360.083 148.467 377.231 130.243 398.39 130.243C419.545 130.243 436.697 148.467 436.697 170.945C436.669 193.413 419.536 211.62 398.39 211.647ZM409.36 79.684H409.429C418.822 80.4991 427.853 83.8953 435.636 89.5447H429.032V105.823H450.483C454.989 112.99 458.07 121.055 459.539 129.527L453.38 162.807H451.472C451.388 162.178 451.241 161.568 451.135 160.948C451.004 160.176 450.882 159.411 450.723 158.656C450.508 157.612 450.246 156.588 449.956 155.567C449.763 154.862 449.595 154.143 449.382 153.444C449.052 152.37 448.678 151.33 448.285 150.279C448.063 149.676 447.864 149.057 447.621 148.454C447.128 147.241 446.576 146.071 446.011 144.905C445.812 144.507 445.65 144.093 445.444 143.692C444.646 142.135 443.785 140.631 442.852 139.176C442.693 138.908 442.5 138.669 442.325 138.411C441.558 137.231 440.794 136.075 439.896 134.958C439.544 134.494 439.129 134.064 438.777 133.61C438.066 132.738 437.352 131.873 436.594 131.062C436.142 130.571 435.668 130.114 435.2 129.643C434.473 128.911 433.737 128.179 432.97 127.486C432.449 127.023 431.922 126.582 431.386 126.144C430.619 125.502 429.852 124.882 429.088 124.286C428.511 123.855 427.928 123.474 427.338 123.05C426.534 122.496 425.723 121.966 424.887 121.423C424.267 121.045 423.646 120.687 423.019 120.339C422.168 119.866 421.295 119.428 420.422 119.004C419.77 118.696 419.127 118.385 418.466 118.1C417.556 117.709 416.63 117.357 415.694 117.026C415.036 116.781 414.384 116.529 413.711 116.317C412.722 116.009 411.718 115.757 410.714 115.502C410.062 115.339 409.42 115.161 408.762 115.025C407.636 114.786 406.463 114.624 405.344 114.461C404.776 114.389 404.228 114.276 403.651 114.216C401.914 114.07 400.158 113.964 398.387 113.964C396.619 113.964 394.863 114.07 393.138 114.249C392.565 114.306 392.013 114.422 391.448 114.495C390.297 114.657 389.147 114.819 388.03 115.055C387.369 115.194 386.727 115.373 386.084 115.535C385.074 115.787 384.07 116.049 383.081 116.35C382.408 116.562 381.756 116.814 381.098 117.059C380.163 117.39 379.236 117.742 378.323 118.133C377.665 118.418 377.022 118.726 376.371 119.037C375.497 119.458 374.621 119.899 373.773 120.369C373.143 120.72 372.522 121.078 371.905 121.453C371.069 121.96 370.255 122.486 369.444 123.083C368.861 123.481 368.281 123.895 367.704 124.312C366.94 124.905 366.173 125.532 365.406 126.174C364.87 126.615 364.343 127.052 363.822 127.516C363.055 128.209 362.288 128.941 361.592 129.677C361.124 130.147 360.65 130.604 360.198 131.091C359.431 131.906 358.726 132.768 358.015 133.639C357.647 134.097 357.248 134.527 356.896 134.991C356.029 136.115 355.218 137.287 354.435 138.474C354.273 138.729 354.099 138.954 353.936 139.199C353.013 140.664 352.15 142.171 351.348 143.725C351.142 144.116 350.98 144.54 350.781 144.938C350.216 146.101 349.664 147.274 349.172 148.487C348.928 149.09 348.729 149.706 348.507 150.309C348.114 151.359 347.74 152.403 347.41 153.477C347.194 154.176 347.026 154.885 346.836 155.594C346.568 156.618 346.309 157.645 346.069 158.695C345.916 159.444 345.794 160.206 345.663 160.975C345.557 161.591 345.411 162.201 345.326 162.837H221.122L217.667 138.417H329.438V122.102H215.375L206.472 59.0813L334.93 72.2852L409.36 79.684ZM210.279 16.2821C236.605 16.2689 262.311 24.7379 284.012 40.5727L302.507 52.4413L204.121 42.4017L200.428 16.2821H210.279ZM176.569 16.2821H184.92L188.385 40.798L111.855 32.9916L105.597 21.9215C129.094 18.1907 152.819 16.3053 176.579 16.2821H176.569ZM15.3242 89.5447H45.969V73.2627H15.5081C15.8855 71.0493 17.2233 69.154 19.1162 68.1435L57.0551 48.0278C59.6652 46.6428 61.3055 43.7999 61.2899 40.7019V30.934L71.534 28.492C76.9881 27.2064 82.7323 25.9937 89.3309 24.7313L100.691 44.8536C101.942 47.0603 104.103 48.5116 106.513 48.7601L190.764 57.4644L199.876 122.105H145.563V138.387H202.165L205.621 162.807H137.358C137.274 162.181 137.13 161.568 137.021 160.952C136.893 160.176 136.769 159.411 136.61 158.656C136.394 157.612 136.132 156.588 135.842 155.571C135.652 154.862 135.484 154.146 135.269 153.447C134.938 152.37 134.564 151.33 134.171 150.279C133.949 149.676 133.75 149.057 133.507 148.457C133.014 147.244 132.462 146.071 131.898 144.908C131.698 144.507 131.536 144.093 131.33 143.696C130.535 142.135 129.671 140.631 128.739 139.176C128.58 138.908 128.386 138.672 128.212 138.411C127.444 137.231 126.68 136.075 125.782 134.961C125.43 134.498 125.018 134.064 124.666 133.61C123.952 132.738 123.241 131.873 122.48 131.062C122.031 130.571 121.554 130.117 121.086 129.643C120.322 128.911 119.623 128.179 118.856 127.486C118.335 127.023 117.808 126.582 117.272 126.144C116.505 125.502 115.741 124.882 114.974 124.289C114.4 123.855 113.817 123.474 113.227 123.05C112.46 122.496 111.609 121.966 110.773 121.423C110.153 121.048 109.532 120.691 108.905 120.339C108.054 119.866 107.181 119.428 106.308 119.004C105.656 118.696 105.014 118.385 104.356 118.1C103.442 117.709 102.516 117.361 101.58 117.026C100.922 116.781 100.27 116.529 99.5968 116.317C98.6082 116.009 97.6041 115.757 96.6031 115.505C95.9513 115.343 95.3058 115.164 94.6478 115.025C93.5221 114.789 92.3495 114.627 91.23 114.461C90.6656 114.389 90.1136 114.276 89.5398 114.22C87.7997 114.07 86.0441 113.964 84.2759 113.964C81.6284 113.984 78.9902 114.216 76.3769 114.657C75.8561 114.74 75.326 114.813 74.8052 114.912C72.351 115.373 69.9342 116.015 67.5642 116.84C67.137 116.986 66.7222 117.165 66.3012 117.328C64.137 118.146 62.0227 119.113 59.9739 120.217C59.6964 120.373 59.4001 120.495 59.1226 120.657C58.3555 121.105 57.5914 121.618 56.8243 122.105H15.321V89.5447H15.3242ZM40.3309 138.384C38.9432 140.492 37.6927 142.698 36.5919 144.988C36.3705 145.452 36.1615 145.922 35.9464 146.403C34.8456 148.798 33.9038 151.273 33.1367 153.811V153.901L18.4956 138.384H40.3309Z" fill="white"/>
</g>
<path id="Vector_2" d="M337.097 87.6159H352.421V103.895H337.097V87.6159Z" fill="white"/>
<path id="Vector_3" d="M107.259 71.3338H137.904V87.6159H107.259V71.3338Z" fill="white"/>
<path id="Vector_4" d="M229.838 79.4749H260.483V95.7569H229.838V79.4749Z" fill="white"/>
<path id="Vector_5" d="M84.2758 144.596C71.5806 144.596 61.2898 155.531 61.2898 169.016C61.2898 182.505 71.5806 193.439 84.2758 193.439C96.9678 193.439 107.259 182.505 107.259 169.016C107.259 155.531 96.9678 144.596 84.2758 144.596ZM84.2758 177.157C80.044 177.157 76.6138 173.512 76.6138 169.019C76.6138 164.523 80.044 160.878 84.2758 160.878C88.5044 160.878 91.9346 164.523 91.9346 169.019C91.9346 173.512 88.5075 177.157 84.2758 177.157Z" fill="white"/>
<path id="Vector_6" d="M398.39 144.596C385.694 144.596 375.404 155.531 375.404 169.016C375.404 182.505 385.694 193.439 398.39 193.439C411.082 193.439 421.373 182.505 421.373 169.016C421.373 155.531 411.082 144.596 398.39 144.596ZM398.39 177.157C394.158 177.157 390.728 173.512 390.728 169.019C390.728 164.523 394.158 160.878 398.39 160.878C402.621 160.878 406.049 164.523 406.049 169.019C406.049 173.512 402.618 177.157 398.39 177.157Z" fill="white"/>
</g>
</svg>
