<svg width="416" height="368" viewBox="0 0 416 368" fill="none" xmlns="http://www.w3.org/2000/svg">
<g id="chef 1">
<g id="spoons">
<path id="Vector" d="M317.317 159.235C308.014 164.493 300.561 171.951 295.804 180.764C291.047 189.577 289.175 199.393 290.4 209.099L208 255.823L125.586 209.128C126.839 199.418 124.976 189.594 120.211 180.777C115.446 171.961 107.972 164.509 98.644 159.275C86.2615 151.725 71.2041 148.403 56.264 149.926C49.2167 150.536 42.4087 152.515 36.326 155.722C30.2433 158.928 25.036 163.284 21.0759 168.476C17.1157 173.669 14.5005 179.571 13.4168 185.761C12.3332 191.951 12.8079 198.277 14.807 204.286C18.8117 217.104 27.9366 228.202 40.4885 235.52C49.4758 241.219 60.0971 244.562 71.134 245.165C82.171 245.768 93.1766 243.607 102.888 238.93L166.855 279.105L105.982 313.634C103.105 315.251 100.624 317.363 98.6862 319.844C96.7484 322.325 95.3932 325.125 94.701 328.078C94.0088 331.031 93.9936 334.076 94.6564 337.034C95.3192 339.993 96.6464 342.803 98.5595 345.299C100.465 347.79 102.914 349.918 105.763 351.56C108.612 353.202 111.802 354.324 115.148 354.859C118.493 355.395 121.926 355.334 125.245 354.679C128.563 354.025 131.7 352.791 134.472 351.049L208 304.923L281.528 351.084C284.303 352.879 287.459 354.161 290.807 354.852C294.155 355.543 297.626 355.629 301.013 355.105C304.399 354.581 307.631 353.457 310.515 351.802C313.399 350.146 315.876 347.993 317.797 345.47C319.718 342.948 321.043 340.108 321.694 337.122C322.344 334.136 322.307 331.064 321.584 328.091C320.86 325.118 319.466 322.304 317.484 319.819C315.502 317.334 312.974 315.228 310.05 313.628L249.106 279.128L313.118 238.936C322.829 243.615 333.834 245.778 344.871 245.177C355.907 244.575 366.529 241.235 375.518 235.537C402.233 219.587 410.956 189.491 394.947 168.446C378.937 147.401 344.091 143.284 317.317 159.235V159.235ZM126.945 341.694C124.168 343.348 120.77 343.976 117.476 343.444C114.183 342.912 111.255 341.263 109.317 338.848C108.379 337.623 107.728 336.245 107.404 334.795C107.079 333.344 107.087 331.85 107.427 330.403C107.767 328.955 108.433 327.582 109.384 326.366C110.335 325.15 111.552 324.115 112.963 323.323L178.282 286.27L196.735 297.85L126.945 341.694ZM308.555 330.407C309.064 332.588 308.819 334.855 307.853 336.912C306.886 338.969 305.241 340.721 303.133 341.94C301.025 343.158 298.552 343.788 296.034 343.746C293.516 343.704 291.071 342.993 289.016 341.705L106.762 227.28C105.651 226.583 104.32 226.213 102.958 226.221C101.596 226.229 100.271 226.616 99.1705 227.326C91.4703 231.772 82.4166 234.026 73.2256 233.787C64.0346 233.547 55.1466 230.825 47.7555 225.987C37.8111 220.216 30.5689 211.452 27.3715 201.319C25.8415 196.893 25.4496 192.219 26.2245 187.642C26.9994 183.064 28.9214 178.697 31.8501 174.861C34.7787 171.026 38.6397 167.817 43.1507 165.472C47.6616 163.126 52.7083 161.702 57.9215 161.305C69.7388 160.131 81.6362 162.787 91.4095 168.78C99.244 173.034 105.42 179.306 109.108 186.755C112.796 194.203 113.819 202.472 112.04 210.45C111.706 211.619 111.796 212.852 112.298 213.974C112.8 215.096 113.687 216.049 114.835 216.7L303.036 323.317C304.448 324.109 305.665 325.146 306.613 326.364C307.561 327.582 308.222 328.957 308.555 330.407V330.407ZM368.225 225.975C360.832 230.813 351.942 233.533 342.75 233.77C333.558 234.008 324.503 231.751 316.803 227.303C315.703 226.593 314.378 226.206 313.016 226.198C311.654 226.19 310.323 226.56 309.212 227.257L237.302 272.418L220.064 262.643L301.145 216.643C302.291 215.993 303.177 215.041 303.678 213.922C304.18 212.802 304.271 211.572 303.94 210.404C302.197 202.424 303.239 194.165 306.929 186.722C310.619 179.279 316.781 173.005 324.597 168.734C345.397 156.331 372.138 159.068 384.157 174.817C396.175 190.567 389.019 213.572 368.225 225.975V225.975Z" fill="#ED4337"/>
</g>
<g id="hat">
<path id="Vector_2" d="M279.37 208.15L297.876 126.304C312.921 125.146 326.877 118.886 336.824 108.834C346.77 98.781 351.937 85.715 351.243 72.3696C350.548 59.0242 344.046 46.4334 333.098 37.2317C322.149 28.03 307.602 22.9304 292.5 22.9999C279.357 22.9588 266.59 26.8835 256.308 34.1262C250.953 27.1555 243.751 21.4496 235.331 17.5059C226.91 13.5622 217.528 11.5005 208 11.5005C198.472 11.5005 189.09 13.5622 180.669 17.5059C172.249 21.4496 165.048 27.1555 159.692 34.1262C149.41 26.8835 136.644 22.9588 123.5 22.9999C108.45 22.9987 93.9779 28.1287 83.0933 37.3235C72.2086 46.5182 65.7487 59.0702 65.0565 72.3698C64.3643 85.6694 69.4931 98.6934 79.3766 108.734C89.26 118.775 103.138 125.059 118.125 126.281L136.63 208.15L149.37 205.896L145.73 189.75H270.27L266.63 205.85L279.37 208.15ZM247.995 178.25L253.435 144.566L240.565 142.933L234.865 178.25H214.5V115H201.5V178.25H181.136L175.435 142.933L162.565 144.566L168.006 178.25H143.13L129.87 119.6C129.57 118.301 128.773 117.134 127.612 116.296C126.451 115.457 124.998 115 123.5 115C111.433 115 99.8595 110.759 91.3266 103.211C82.7937 95.6626 78 85.4249 78 74.7499C78 64.075 82.7937 53.8372 91.3266 46.2889C99.8595 38.7405 111.433 34.4999 123.5 34.4999C129.694 34.4859 135.825 35.602 141.51 37.7786C147.195 39.9551 152.311 43.1454 156.54 47.1499C157.262 47.8258 158.159 48.3365 159.154 48.6382C160.148 48.94 161.211 49.0238 162.25 48.8824C163.289 48.7411 164.274 48.3788 165.121 47.8267C165.967 47.2745 166.649 46.549 167.109 45.7124C170.822 38.9098 176.628 33.1712 183.861 29.1555C191.094 25.1397 199.46 23.0096 208 23.0096C216.54 23.0096 224.906 25.1397 232.139 29.1555C239.372 33.1712 245.178 38.9098 248.892 45.7124C249.351 46.549 250.033 47.2745 250.879 47.8267C251.726 48.3788 252.711 48.7411 253.75 48.8824C254.789 49.0238 255.852 48.94 256.846 48.6382C257.841 48.3365 258.738 47.8258 259.461 47.1499C263.689 43.1454 268.805 39.9551 274.49 37.7786C280.175 35.602 286.306 34.4859 292.5 34.4999C304.567 34.4999 316.14 38.7405 324.673 46.2889C333.206 53.8372 338 64.075 338 74.7499C338 85.4249 333.206 95.6626 324.673 103.211C316.14 110.759 304.567 115 292.5 115C291.002 115 289.549 115.457 288.388 116.296C287.227 117.134 286.43 118.301 286.13 119.6L272.87 178.25H247.995Z" fill="#ED4337"/>
</g>
</g>
</svg>
