<svg width="512" height="512" viewBox="0 0 512 512" fill="none" xmlns="http://www.w3.org/2000/svg">
<g id="fashion 1">
<path id="Vector" d="M448 135.809V104C448 101.878 447.157 99.8434 445.657 98.3431C444.157 96.8428 442.122 96 440 96H410.422L378.041 74.412C382.594 71.3018 386.266 67.0679 388.7 62.1207C391.135 57.1736 392.25 51.6813 391.936 46.1764C391.623 40.6716 389.893 35.3411 386.913 30.7021C383.933 26.063 379.804 22.2728 374.928 19.6991C370.052 17.1254 364.593 15.8556 359.082 16.0128C353.57 16.17 348.193 17.7489 343.471 20.5963C338.75 23.4438 334.844 27.4631 332.134 32.2645C329.423 37.0658 327.999 42.4863 328 48C328 50.1217 328.843 52.1566 330.343 53.6568C331.843 55.1571 333.878 56 336 56C338.122 56 340.157 55.1571 341.657 53.6568C343.157 52.1566 344 50.1217 344 48C344 44.8355 344.938 41.7421 346.696 39.1109C348.455 36.4797 350.953 34.4289 353.877 33.2179C356.801 32.0069 360.018 31.6901 363.121 32.3074C366.225 32.9248 369.076 34.4486 371.314 36.6863C373.551 38.9239 375.075 41.7749 375.693 44.8785C376.31 47.9822 375.993 51.1993 374.782 54.1229C373.571 57.0466 371.52 59.5454 368.889 61.3035C366.258 63.0616 363.165 64 360 64C358.42 63.9996 356.876 64.4672 355.562 65.344L309.578 96H280C279.9 96 279.807 96.011 279.71 96.015C279.478 96.015 279.248 96 279.016 96H242.422L210.04 74.412C214.593 71.302 218.265 67.068 220.7 62.1209C223.135 57.1738 224.249 51.6814 223.936 46.1765C223.623 40.6716 221.893 35.341 218.913 30.7018C215.933 26.0626 211.805 22.2723 206.928 19.6986C202.052 17.1248 196.593 15.8549 191.082 16.0121C185.57 16.1693 180.193 17.7482 175.471 20.5957C170.75 23.4433 166.844 27.4627 164.133 32.2642C161.423 37.0656 159.999 42.4862 160 48C160 50.1217 160.843 52.1566 162.343 53.6568C163.843 55.1571 165.878 56 168 56C170.122 56 172.157 55.1571 173.657 53.6568C175.157 52.1566 176 50.1217 176 48C176 44.8355 176.938 41.7421 178.696 39.1109C180.455 36.4797 182.953 34.4289 185.877 33.2179C188.801 32.0069 192.018 31.6901 195.121 32.3074C198.225 32.9248 201.076 34.4486 203.314 36.6863C205.551 38.9239 207.075 41.7749 207.693 44.8785C208.31 47.9822 207.993 51.1993 206.782 54.1229C205.571 57.0466 203.52 59.5454 200.889 61.3035C198.258 63.0616 195.165 64 192 64C190.42 63.9996 188.876 64.4672 187.562 65.344L141.578 96H104.984C96.0616 95.991 87.393 98.9699 80.3608 104.462C73.3286 109.953 68.3377 117.641 66.184 126.3C66.1207 126.549 66.07 126.8 66.032 127.055L48.092 246.815C48.032 247.207 48.0012 247.603 48 248V408C48 410.122 48.8429 412.157 50.3431 413.657C51.8434 415.157 53.8783 416 56 416H104C106.122 416 108.157 415.157 109.657 413.657C111.157 412.157 112 410.122 112 408V400H160C162.122 400 164.157 399.157 165.657 397.657C167.157 396.157 168 394.122 168 392V384H216V392C216 394.122 216.843 396.157 218.343 397.657C219.843 399.157 221.878 400 224 400H259.991L256.008 487.637C255.959 488.717 256.129 489.796 256.509 490.808C256.888 491.821 257.469 492.745 258.216 493.527C258.963 494.309 259.861 494.931 260.855 495.356C261.849 495.781 262.919 496 264 496H456C457.081 496 458.151 495.781 459.145 495.356C460.139 494.931 461.037 494.309 461.784 493.527C462.531 492.745 463.112 491.821 463.491 490.808C463.871 489.796 464.041 488.717 463.992 487.637L448 135.809ZM433.406 167.129C427.183 165.346 422.623 160.803 419.568 153.374C418.353 150.35 417.452 147.209 416.88 144H432.355L433.406 167.129ZM432 128H318.114L317.972 127.054C317.934 126.8 317.883 126.548 317.82 126.299C316.53 121.126 314.218 116.264 311.02 111.999H432V128ZM360 81.615L381.578 96H338.422L360 81.615ZM262.675 112L258.975 136.062C258.529 138.942 257.242 141.627 255.276 143.779C253.309 145.93 250.751 147.453 247.922 148.155C245.093 148.858 242.12 148.709 239.376 147.727C236.631 146.746 234.238 144.975 232.496 142.638C240.544 134.23 245.765 123.519 247.431 112H262.675ZM152.805 112H231.2C229.359 121.037 224.452 129.16 217.309 134.994C210.167 140.829 201.228 144.016 192.005 144.016C182.782 144.016 173.843 140.829 166.701 134.994C159.558 129.16 154.651 121.037 152.81 112H152.805ZM192 81.615L213.578 96H170.422L192 81.615ZM136.569 112C138.235 123.519 143.457 134.23 151.506 142.638C149.764 144.975 147.371 146.746 144.626 147.727C141.882 148.709 138.909 148.858 136.08 148.155C133.251 147.453 130.693 145.93 128.726 143.779C126.76 141.627 125.473 138.942 125.027 136.062L121.325 112H136.569ZM152 384H112V232C112 229.878 111.157 227.843 109.657 226.343C108.157 224.843 106.122 224 104 224C101.878 224 99.8434 224.843 98.3431 226.343C96.8429 227.843 96 229.878 96 232V400H64V248.6L81.791 129.833C83.145 124.717 86.1547 120.192 90.3503 116.966C94.546 113.74 99.6915 111.994 104.984 112H105.136L109.213 138.5C110.133 144.985 113.129 150.997 117.754 155.634C122.379 160.272 128.382 163.286 134.864 164.224C140.659 165.17 146.604 164.441 152 162.124V384ZM168 368V154.581C175.498 158.149 183.697 160 192 160C200.303 160 208.502 158.149 216 154.581V368H168ZM232 162.121C237.396 164.438 243.341 165.166 249.136 164.221C255.618 163.283 261.621 160.27 266.245 155.633C270.87 150.995 273.867 144.984 274.787 138.5L278.864 112H279.016C284.308 111.994 289.454 113.74 293.65 116.966C297.845 120.192 300.855 124.717 302.209 129.833L320 248.6V400H288V232C288 229.878 287.157 227.843 285.657 226.343C284.157 224.843 282.122 224 280 224C277.878 224 275.843 224.843 274.343 226.343C272.843 227.843 272 229.878 272 232V384H232V162.121ZM352 480H272.372L275.349 414.5C276.703 415.476 278.331 416.001 280 416H328C330.122 416 332.157 415.157 333.657 413.657C335.157 412.157 336 410.122 336 408V248C336 247.603 335.971 247.207 335.912 246.814L320.51 144H352V480ZM368 480V144H400.672C401.381 149.126 402.69 154.151 404.572 158.971C410.238 173.134 420.622 181.71 434.155 183.599L447.628 480H368Z" fill="#ED4337"/>
</g>
</svg>
